<svg xmlns="http://www.w3.org/2000/svg" version="1.1" xmlns:xlink="http://www.w3.org/1999/xlink" xmlns:svgjs="http://svgjs.dev/svgjs" width="1500" height="1500" viewBox="0 0 1500 1500"><rect width="1500" height="1500" fill="#ffffff"></rect><g transform="matrix(0.6666666666666666,0,0,0.6666666666666666,249.39451359313676,384.87114655033736)"><svg viewBox="0 0 396 300" data-background-color="#ede1d1" preserveAspectRatio="xMidYMid meet" height="1136" width="1500" xmlns="http://www.w3.org/2000/svg" xmlns:xlink="http://www.w3.org/1999/xlink"><g id="tight-bounds" transform="matrix(1,0,0,1,0.2402273828821535,0.2139837695864344)"><svg viewBox="0 0 395.52 299.5720324608271" height="299.5720324608271" width="395.52"><g><svg viewBox="0 0 395.52 299.5720324608271" height="299.5720324608271" width="395.52"><g transform="matrix(1,0,0,1,0,194.4699427911107)"><svg viewBox="0 0 395.52 105.10208966971636" height="105.10208966971636" width="395.52"><g id="textblocktransform"><svg viewBox="0 0 395.52 105.10208966971636" height="105.10208966971636" width="395.52" id="textblock"><g><svg viewBox="0 0 395.52 70.85927151453119" height="70.85927151453119" width="395.52"><g transform="matrix(1,0,0,1,0,0)"><svg width="395.52" viewBox="-0.30769 -35.899993505077184 269.613963101696 48.30261350507718" height="70.85927151453119" data-palette-color="#6a704c"><path d="M5.972 11.272l-6.28-33.456 11.755-2.206c3.027-0.568 5.455-0.067 7.282 1.502 1.834 1.569 3.045 3.916 3.631 7.041v0c0.376 2.005 0.555 3.844 0.537 5.516-0.02 1.666-0.55 3.234-1.589 4.704-1.048 1.465-2.862 2.44-5.444 2.924v0l-9.406 1.766 2.197 11.706zM15.418-5.346c1.789-0.336 3.029-1.064 3.721-2.184 0.7-1.115 1.041-2.298 1.023-3.549-0.024-1.25-0.177-2.626-0.459-4.126v0c-0.489-2.608-1.398-4.465-2.725-5.573-1.326-1.101-2.945-1.472-4.858-1.113v0l-9.269 1.739 3.113 16.581zM30.86 6.797l-3.724-24.074 2.688-0.415 0.112 1.703c1.291-1.643 3.152-2.653 5.583-3.029v0c0.87-0.135 2.078-0.173 3.625-0.116v0l-0.343 2.563c-1.071-0.165-2.17-0.16-3.296 0.014v0c-1.469 0.227-2.692 0.696-3.668 1.407-0.97 0.71-1.37 1.608-1.203 2.695v0l2.914 18.837zM61.924-6.502c0.35 2.704-0.1 5.035-1.353 6.992-1.245 1.963-3.365 3.138-6.36 3.527v0c-2.988 0.387-5.362-0.213-7.12-1.8-1.759-1.587-2.811-3.716-3.157-6.387v0l-0.825-6.367c-0.395-3.048 0.082-5.486 1.432-7.315 1.35-1.829 3.485-2.932 6.407-3.311v0c2.797-0.362 5.095 0.2 6.895 1.688 1.792 1.482 2.877 3.684 3.256 6.607v0zM58.401-12.519c-0.312-2.407-1.096-4.1-2.352-5.08-1.257-0.987-2.851-1.355-4.782-1.104v0c-1.99 0.258-3.474 1.025-4.451 2.301-0.978 1.27-1.312 3.108-1 5.514v0l0.888 6.853c0.25 1.931 1.021 3.417 2.313 4.459 1.298 1.042 2.925 1.436 4.882 1.183v0c1.997-0.259 3.458-1.046 4.383-2.363 0.926-1.31 1.262-2.947 1.007-4.91v0zM65.843-29.293c-0.424 0.044-0.823-0.086-1.196-0.389-0.373-0.303-0.581-0.664-0.624-1.082v0c-0.043-0.418 0.081-0.806 0.372-1.164 0.292-0.352 0.664-0.551 1.115-0.598v0c0.451-0.047 0.845 0.067 1.181 0.341 0.337 0.274 0.528 0.636 0.574 1.086v0c0.047 0.451-0.076 0.856-0.367 1.214-0.285 0.351-0.637 0.548-1.055 0.592zM65.425-19.619l-2.193 0.086-1.374-2.402 5.999-0.619 2.877 27.862c0.127 1.877-0.294 3.482-1.261 4.815-0.967 1.34-2.323 2.1-4.068 2.28v0l-0.553-2.044c0.01 0.099 0.338-0.038 0.983-0.414 0.644-0.382 1.191-0.994 1.64-1.838 0.456-0.845 0.608-1.993 0.458-3.445v0zM91.229-1.781c-1.102 0.839-2.382 1.512-3.839 2.018-1.45 0.506-2.92 0.82-4.408 0.942v0c-2.392 0.195-4.337-0.238-5.835-1.301-1.505-1.068-2.354-2.781-2.546-5.14v0l-0.809-9.927c-0.213-2.618 0.438-4.721 1.953-6.309 1.509-1.588 3.606-2.491 6.291-2.71v0c2.678-0.218 4.83 0.332 6.455 1.651 1.619 1.313 2.532 3.245 2.74 5.796v0l0.514 6.299-14.674 2.029 0.241 2.95c0.127 1.555 0.723 2.68 1.79 3.376 1.066 0.689 2.407 0.968 4.021 0.836v0c2.259-0.184 4.549-1.02 6.869-2.506v0zM88.483-16.878c-0.163-2-0.906-3.361-2.229-4.082-1.33-0.721-2.689-1.025-4.078-0.912v0c-1.774 0.145-3.203 0.746-4.287 1.804-1.09 1.065-1.551 2.631-1.383 4.698v0l0.348 4.266 11.973-1.558zM111.487-1.454c-1.984 0.624-3.914 0.984-5.792 1.082v0c-1.744 0.091-3.209-0.03-4.395-0.362v0c-1.944-0.546-3.381-1.47-4.309-2.77-0.929-1.3-1.456-3.162-1.582-5.586v0l-0.323-6.221c-0.166-3.202 0.549-5.679 2.147-7.432 1.598-1.759 3.721-2.707 6.371-2.844v0c2.11-0.11 4.308 0.297 6.592 1.219v0l-0.676 2.028c-1.883-0.65-3.683-0.93-5.401-0.841v0c-2.004 0.104-3.592 0.764-4.763 1.98-1.172 1.216-1.695 3.035-1.569 5.459v0l0.366 7.04c0.116 2.237 0.873 3.82 2.269 4.749 1.397 0.935 3.211 1.345 5.441 1.229v0c1.458-0.076 3.098-0.371 4.921-0.886v0zM119.753-0.765c-1.828-0.465-3.162-1.253-4.002-2.361-0.847-1.108-1.299-2.619-1.357-4.531v0l-0.827-27.608 2.719-0.081 0.29 9.675 5.837-0.174-1.092 2.613-4.668 0.14 0.46 15.353c0.078 2.592 1.197 4.213 3.357 4.862v0zM141.918-10.2c0.081 1.108 0.475 2.172 1.184 3.192 0.709 1.013 1.701 1.847 2.976 2.502 1.269 0.656 2.73 0.998 4.383 1.028v0c2.493 0.044 4.582-0.48 6.269-1.57 1.693-1.09 2.56-2.849 2.603-5.275v0c0.025-1.426-0.361-2.627-1.157-3.601-0.79-0.967-1.78-1.745-2.969-2.333-1.19-0.588-2.815-1.273-4.875-2.056v0c-2.226-0.819-4.006-1.574-5.341-2.264-1.328-0.683-2.446-1.6-3.352-2.75-0.906-1.156-1.344-2.624-1.313-4.403v0c0.025-1.426 0.455-2.772 1.291-4.038 0.836-1.266 2.077-2.28 3.724-3.045 1.654-0.764 3.677-1.126 6.07-1.084v0c1.593 0.028 2.904 0.164 3.934 0.41 1.036 0.245 2.082 0.637 3.139 1.175v0l-0.865 2.555c-1.83-0.972-3.881-1.478-6.154-1.518v0c-2.493-0.044-4.495 0.441-6.006 1.454-1.511 1.007-2.283 2.437-2.316 4.29v0c-0.021 1.166 0.336 2.153 1.068 2.959 0.733 0.806 1.638 1.462 2.716 1.969 1.078 0.506 2.584 1.116 4.518 1.829v0c2.352 0.848 4.249 1.635 5.69 2.361 1.447 0.726 2.67 1.737 3.667 3.035 1.004 1.298 1.489 2.917 1.455 4.856v0c-0.053 2.986-1.044 5.362-2.976 7.129-1.925 1.76-4.867 2.605-8.826 2.535v0c-2.393-0.042-4.435-0.521-6.126-1.438-1.684-0.923-2.96-2.096-3.828-3.518-0.862-1.429-1.312-2.907-1.353-4.434v0zM170.945-32.076c-0.426-0.018-0.802-0.205-1.127-0.558-0.325-0.354-0.479-0.741-0.461-1.161v0c0.018-0.42 0.197-0.786 0.537-1.098 0.34-0.306 0.737-0.449 1.19-0.43v0c0.453 0.019 0.826 0.189 1.119 0.509 0.293 0.32 0.43 0.706 0.411 1.158v0c-0.019 0.453-0.199 0.836-0.54 1.148-0.333 0.306-0.71 0.45-1.129 0.432zM168.195-0.895l1.045-24.337 2.717 0.116-1.044 24.338zM188.358 8.535c2.192-0.662 3.377-2.27 3.555-4.824v0l0.421-6.015c-1.522 2.266-3.789 3.294-6.802 3.083v0c-2.846-0.199-5.007-1.129-6.481-2.789-1.474-1.66-2.107-3.98-1.899-6.96v0l0.505-7.222c0.199-2.846 1.185-4.996 2.957-6.45 1.779-1.453 4.075-2.081 6.888-1.884v0c3.006 0.21 5.112 1.447 6.317 3.71v0l0.007-2.826 2.713 0.189-1.916 27.404c-0.136 1.942-0.648 3.433-1.536 4.473-0.882 1.048-2.264 1.796-4.147 2.246v0zM193.266-15.642c0.14-2.002-0.404-3.543-1.631-4.625-1.221-1.074-2.723-1.674-4.505-1.799v0c-1.709-0.12-3.226 0.302-4.55 1.266-1.317 0.964-2.059 2.643-2.227 5.037v0l-0.519 7.422c-0.142 2.035 0.326 3.612 1.404 4.729 1.071 1.117 2.561 1.743 4.47 1.877v0c1.816 0.127 3.401-0.324 4.756-1.352 1.355-1.028 2.105-2.576 2.249-4.644v0zM214.389 2.844l1.686-16.595c0.2-1.963-0.229-3.448-1.286-4.452-1.05-1.005-2.481-1.599-4.292-1.784v0c-1.094-0.111-2.221-0.072-3.379 0.119-1.159 0.197-2.201 0.49-3.125 0.879v0l-2.09 20.564-2.706-0.275 2.463-24.235 2.706 0.275-0.356 1.622c0.845-0.598 1.881-1.005 3.11-1.222 1.228-0.217 2.486-0.26 3.772-0.129v0c1.771 0.18 3.257 0.626 4.458 1.338v0c1.235 0.708 2.155 1.68 2.759 2.914 0.605 1.234 0.817 2.74 0.637 4.517v0l-1.701 16.734zM239.513 6.238l4.645-31.217-3.211-0.569 0.352-2.364 5.915 0.881-5.011 33.669zM263.569 10.387l2.907-16.424c0.344-1.943 0.026-3.455-0.954-4.536-0.973-1.079-2.356-1.778-4.148-2.095v0c-1.083-0.192-2.209-0.235-3.379-0.131-1.171 0.111-2.231 0.326-3.181 0.646v0l-3.603 20.353-2.678-0.474 4.245-23.987 2.679 0.474-0.475 1.592c0.887-0.534 1.95-0.863 3.191-0.989 1.241-0.126 2.498-0.076 3.772 0.149v0c1.753 0.31 3.202 0.865 4.346 1.663v0c1.179 0.798 2.025 1.834 2.537 3.11 0.512 1.275 0.613 2.793 0.302 4.552v0l-2.931 16.563z" opacity="1" transform="matrix(1,0,0,1,0,0)" fill="#000000" class="wordmark-text-0" data-fill-palette-color="primary" id="text-0"></path></svg></g></svg></g><g transform="matrix(1,0,0,1,118.31980799999998,77.60740907824308)"><svg viewBox="0 0 158.88038400000002 27.494680591473287" height="27.494680591473287" width="158.88038400000002"><g transform="matrix(1,0,0,1,0,0)"><svg width="158.88038400000002" viewBox="4 -37.1 277.92 48.1" height="27.494680591473287" data-palette-color="#6a704c"><path d="M4-34.5L14.85-34.5Q19.65-34.5 22.5-31.78 25.35-29.05 25.35-24.3 25.35-19.55 21.75-16.18 18.15-12.8 12.95-12.8L12.95-12.8 10.1-12.8 10.7 0 4 0 4.6-12.15 4-34.5ZM13.05-29.45L13.05-29.45 10.6-29.45 10.25-17.65 13.65-17.65Q16.15-17.65 17.53-19.3 18.9-20.95 18.9-24L18.9-24Q18.9-29.45 13.05-29.45ZM27.8-24.15L27.8-24.15 33.85-25.45Q34.3-21.6 34.45-18.15L34.45-18.15Q39-25.2 43-25.2L43-25.2 42.45-17.4Q39.55-17.4 37.87-16.88 36.2-16.35 34.45-14.8L34.45-14.8 34.45-13 35-1.25 28.3 0 28.9-12.15Q28.7-18.85 27.8-24.15ZM44.65-10.45Q44.65-16.85 48.1-21.3 51.55-25.75 56.17-25.75 60.8-25.75 63.37-22.75 65.95-19.75 65.95-14.8L65.95-14.8Q65.95-8.2 62.62-3.83 59.3 0.55 54.25 0.55L54.25 0.55Q50.1 0.55 47.37-2.58 44.65-5.7 44.65-10.45L44.65-10.45ZM60.35-12.2L60.35-12.2Q60.35-19.45 55.4-19.45L55.4-19.45Q50.25-19.45 50.25-12.65L50.25-12.65Q50.25-9.1 51.7-7.1 53.15-5.1 55.52-5.1 57.9-5.1 59.12-6.93 60.35-8.75 60.35-12.2ZM67.49 11L67.49 11Q65.44 11 63.39 10.55L63.39 10.55 64.94 4.85Q66.64 5.3 68.12 5.3 69.59 5.3 70.24 4.2 70.89 3.1 70.89 0.25L70.89 0.25 70.84-12.15 70.29-24.2 76.99-25.45 76.39-13 76.94-1.7Q76.94 3.5 74.14 7.25 71.34 11 67.49 11ZM69.94-32.73Q69.94-34.45 71.24-35.77 72.54-37.1 74.27-37.1 75.99-37.1 76.87-36.18 77.74-35.25 77.74-33.43 77.74-31.6 76.49-30.25 75.24-28.9 73.57-28.9 71.89-28.9 70.92-29.95 69.94-31 69.94-32.73ZM91.59-5.1L91.59-5.1Q93.04-5.1 94.64-5.85 96.24-6.6 97.14-7.35L97.14-7.35 98.04-8.1 100.34-5.3Q99.84-4.45 98.79-3.35 97.74-2.25 96.66-1.48 95.59-0.7 93.81-0.08 92.04 0.55 90.14 0.55L90.14 0.55Q86.09 0.55 83.54-2.53 80.99-5.6 80.99-10.45L80.99-10.45Q80.99-16.55 84.54-21.15 88.09-25.75 92.84-25.75L92.84-25.75Q96.49-25.75 98.52-23.7 100.54-21.65 100.54-17.95L100.54-17.95Q100.54-15.75 99.79-12.95L99.79-12.95 98.79-11.9 86.29-10.75Q87.14-5.1 91.59-5.1ZM91.59-20.6L91.59-20.6Q89.39-20.6 87.89-18.82 86.39-17.05 86.14-14.3L86.14-14.3 94.64-15.35Q94.79-16.5 94.79-17.25L94.79-17.25Q94.79-20.6 91.59-20.6ZM113.49-19.25Q111.29-19.25 110.09-17.68 108.89-16.1 108.89-12.85 108.89-9.6 110.11-7.63 111.34-5.65 113.69-5.65L113.69-5.65Q114.89-5.65 116.04-6.4 117.19-7.15 117.79-7.9L117.79-7.9 118.34-8.7 120.84-6.1Q120.69-5.85 120.46-5.4 120.24-4.95 119.36-3.8 118.49-2.65 117.51-1.78 116.54-0.9 114.99-0.18 113.44 0.55 111.74 0.55L111.74 0.55Q107.99 0.55 105.64-2.5 103.29-5.55 103.29-10.45L103.29-10.45Q103.29-16.55 106.84-21.15 110.39-25.75 115.14-25.75L115.14-25.75Q116.59-25.75 118.04-25.33 119.49-24.9 120.99-24L120.99-24 117.49-17.85Q115.69-19.25 113.49-19.25ZM123.19-24.2L126.08-24.2 126.08-29.65 132.84-30.95 132.19-24.2 138.24-24.2 137.69-20.1 131.99-20.1 131.74-9.65Q131.74-7.3 132.19-6.53 132.63-5.75 133.84-5.75 135.03-5.75 137.03-6.3L137.03-6.3 137.34-2.75Q134.03 0 131.53 0 129.03 0 127.44-1.83 125.83-3.65 125.83-6.6L125.83-6.6 126.14-12.2 126.08-20.1 122.64-20.1 123.19-24.2ZM147.33-4.55L151.23-9.95Q155.48-5.7 159.73-5.7L159.73-5.7Q161.93-5.7 163.25-6.73 164.58-7.75 164.58-9.38 164.58-11 162.98-12.13 161.38-13.25 159.11-14.1 156.83-14.95 154.58-16.03 152.33-17.1 150.73-19.1 149.13-21.1 149.13-23.95L149.13-23.95Q149.13-28.45 152.88-31.73 156.63-35 161.78-35L161.78-35Q164.13-35 166.33-34.5 168.53-34 170.58-33.05L170.58-33.05 167.18-25.75Q165.78-26.85 163.36-27.78 160.93-28.7 159.11-28.7 157.28-28.7 156.16-27.83 155.03-26.95 155.03-25.5 155.03-24.05 156.63-22.93 158.23-21.8 160.5-20.95 162.78-20.1 165.06-19.07 167.33-18.05 168.93-16.05 170.53-14.05 170.53-11.2L170.53-11.2Q170.53-6.5 166.78-2.98 163.03 0.55 158.03 0.55L158.03 0.55Q154.28 0.55 151.38-1.25L151.38-1.25Q148.83-2.8 147.78-4L147.78-4 147.33-4.55ZM174.73-24.2L181.43-25.45 180.83-13 181.38-1.25 174.68 0 175.28-12.15 174.73-24.2ZM174.38-32.77Q174.38-34.45 175.68-35.77 176.98-37.1 178.68-37.1 180.38-37.1 181.28-36.18 182.18-35.25 182.18-33.4 182.18-31.55 180.9-30.23 179.63-28.9 177.95-28.9 176.28-28.9 175.33-30 174.38-31.1 174.38-32.77ZM185.18 4.95L185.18 4.95Q185.18 0.55 193.38-1.95L193.38-1.95Q191.43-2.95 191.43-4.55L191.43-4.55Q191.43-5.2 191.93-5.85 192.43-6.5 193.38-7.2L193.38-7.2 193.38-7.6Q189.78-7.6 187.65-9.6 185.53-11.6 185.53-14.95L185.53-14.95Q185.53-19.3 189.08-22.53 192.63-25.75 197.47-25.75L197.47-25.75Q198.72-25.75 201.13-25.25 203.53-24.75 205.83-24.75L205.83-24.75 209.68-24.75 209.18-20.4 205.43-20.85Q205.93-19.4 205.93-17.55 205.93-15.7 205.05-13.88 204.18-12.05 202.95-10.95 201.72-9.85 200.5-9.03 199.28-8.2 198.4-7.58 197.53-6.95 197.53-6.45L197.53-6.45Q197.53-5.5 199.53-4.8L199.53-4.8Q204.83-2.65 206.7-1.15 208.58 0.35 208.58 2.55L208.58 2.55Q208.58 6.25 204.85 8.63 201.13 11 195.97 11 190.83 11 188 9.35 185.18 7.7 185.18 4.95ZM200.28-16.05L200.28-16.05Q200.28-18.5 199.18-19.65 198.08-20.8 195.72-20.8L195.72-20.8Q191.18-20.8 191.18-16.32 191.18-11.85 196.03-11.85L196.03-11.85Q200.28-11.85 200.28-16.05ZM202.08 3.3L202.08 3.3Q202.08 2.4 201.13 1.63 200.18 0.85 197.72-0.2L197.72-0.2Q194.08 0.8 192.7 1.65 191.33 2.5 191.33 3.75 191.33 5 192.7 5.78 194.08 6.55 196.53 6.55 198.97 6.55 200.53 5.65 202.08 4.75 202.08 3.3ZM226.82-12.65Q226.82-16.1 226.22-17.25 225.62-18.4 223.42-18.4 221.22-18.4 218.42-16.65L218.42-16.65 218.42-13 218.97-1.25 212.27 0 212.87-12.15Q212.67-18.85 211.77-24.15L211.77-24.15 217.82-25.45Q218.17-22.55 218.32-19.8L218.32-19.8Q219.07-20.8 220.02-21.78 220.97-22.75 223.02-23.98 225.07-25.2 227.35-25.2 229.62-25.2 231.17-23.43 232.72-21.65 232.72-18.6L232.72-18.6 232.42-13 232.97-1 226.22 0.25 226.82-12.65ZM247.27-33.5L254.37-34.75 253.67-13 254.27 0 247.27 0 247.87-12.15 247.27-33.5ZM275.76-12.65Q275.76-16.1 275.17-17.25 274.56-18.4 272.37-18.4 270.17-18.4 267.37-16.65L267.37-16.65 267.37-13 267.92-1.25 261.22 0 261.81-12.15Q261.62-18.85 260.72-24.15L260.72-24.15 266.76-25.45Q267.12-22.55 267.26-19.8L267.26-19.8Q268.01-20.8 268.97-21.78 269.92-22.75 271.97-23.98 274.01-25.2 276.29-25.2 278.56-25.2 280.12-23.43 281.67-21.65 281.67-18.6L281.67-18.6 281.37-13 281.92-1 275.17 0.25 275.76-12.65Z" opacity="1" transform="matrix(1,0,0,1,0,0)" fill="#000000" class="slogan-text-1" data-fill-palette-color="secondary" id="text-1"></path></svg></g></svg></g></svg></g></svg></g><g transform="matrix(1,0,0,1,109.08914603787427,0)"><svg viewBox="0 0 177.34170792425144 170.05518108560108" height="170.05518108560108" width="177.34170792425144"><g><svg xmlns="http://www.w3.org/2000/svg" xmlns:xlink="http://www.w3.org/1999/xlink" version="1.1" x="0" y="0" viewBox="0.0009671038392672082 0.48795491521100476 23.998065792321466 23.012045343335277" style="enable-background:new 0 0 24 24;" xml:space="preserve" height="170.05518108560108" width="177.34170792425144" class="icon-icon-0" data-fill-palette-color="accent" id="icon-0"><g fill="#412e27" data-fill-palette-color="accent"><g fill="#412e27" data-fill-palette-color="accent"><path d="M7.5 23.5A0.5 0.5 0 0 1 7.038 22.811L16.038 0.811A0.5 0.5 0 1 1 16.963 1.19L7.963 23.19A0.5 0.5 0 0 1 7.5 23.5" fill="#000000" data-fill-palette-color="accent"></path></g><g fill="#412e27" data-fill-palette-color="accent"><path d="M17.5 19.5A0.5 0.5 0 0 1 17.121 18.674L22.841 12 17.12 5.325A0.5 0.5 0 1 1 17.879 4.674L23.879 11.674A0.5 0.5 0 0 1 23.879 12.324L17.879 19.324A0.5 0.5 0 0 1 17.5 19.5" fill="#000000" data-fill-palette-color="accent"></path></g><g fill="#412e27" data-fill-palette-color="accent"><path d="M6.5 19.5A0.5 0.5 0 0 1 6.121 19.325L0.121 12.325A0.5 0.5 0 0 1 0.121 11.675L6.121 4.675A0.5 0.5 0 1 1 6.879 5.325L1.159 12 6.88 18.675A0.5 0.5 0 0 1 6.5 19.5" fill="#000000" data-fill-palette-color="accent"></path></g></g></svg></g></svg></g><g></g></svg></g><defs></defs></svg><rect width="395.52" height="299.5720324608271" fill="none" stroke="none" visibility="hidden"></rect></g></svg></g></svg>